<svg xmlns="http://www.w3.org/2000/svg" xmlns:xlink="http://www.w3.org/1999/xlink" viewBox="0 0 241.42 210.28"><defs><style>.cls-1,.cls-2,.cls-3,.cls-4{fill:#231f20;}.cls-1,.cls-2,.cls-3,.cls-4,.cls-7,.cls-8,.cls-9{stroke-miterlimit:10;}.cls-1{stroke:url(#linear-gradient);}.cls-2{stroke:url(#linear-gradient-2);}.cls-3{stroke:url(#linear-gradient-3);}.cls-4{stroke:url(#linear-gradient-4);}.cls-5{fill:url(#linear-gradient-5);}.cls-6{fill:url(#linear-gradient-6);}.cls-7{stroke:url(#linear-gradient-7);}.cls-8{stroke:url(#linear-gradient-8);}.cls-9{stroke:url(#linear-gradient-9);}</style><linearGradient id="linear-gradient" x1="137.93" y1="199.68" x2="181.96" y2="199.68" gradientUnits="userSpaceOnUse"><stop offset="0" stop-color="#fff"/><stop offset="0.07" stop-color="#dfe0ef"/><stop offset="0.14" stop-color="#c3c5e1"/><stop offset="0.22" stop-color="#acaed6"/><stop offset="0.32" stop-color="#9b9dcd"/><stop offset="0.43" stop-color="#8e91c7"/><stop offset="0.59" stop-color="#878ac3"/><stop offset="0.96" stop-color="#8588c2"/></linearGradient><linearGradient id="linear-gradient-2" x1="15.89" y1="46.32" x2="223.94" y2="46.32" xlink:href="#linear-gradient"/><linearGradient id="linear-gradient-3" x1="38.87" y1="151.88" x2="225.12" y2="151.88" xlink:href="#linear-gradient"/><linearGradient id="linear-gradient-4" x1="14.86" y1="157.46" x2="138.1" y2="157.46" xlink:href="#linear-gradient"/><linearGradient id="linear-gradient-5" x1="17.52" y1="47.48" x2="85.66" y2="47.48" xlink:href="#linear-gradient"/><linearGradient id="linear-gradient-6" x1="16.21" y1="157.39" x2="176.81" y2="157.39" xlink:href="#linear-gradient"/><linearGradient id="linear-gradient-7" x1="97.39" y1="100.33" x2="142.94" y2="100.33" xlink:href="#linear-gradient"/><linearGradient id="linear-gradient-8" x1="0" y1="102.87" x2="116.47" y2="102.87" xlink:href="#linear-gradient"/><linearGradient id="linear-gradient-9" x1="241.42" y1="102.87" x2="124.95" y2="102.87" xlink:href="#linear-gradient"/></defs><g id="Layer_2" data-name="Layer 2"><g id="business_card" data-name="business card"><path class="cls-1" d="M163.52,200.55c1.49-.66,2.95-1.35,4.4-2.09a103.92,103.92,0,0,0,10.24-5.92l-1.35.46A104.29,104.29,0,0,1,138,208.23,103.42,103.42,0,0,0,163.52,200.55Z"/><path class="cls-2" d="M85.66,6.44a104.41,104.41,0,0,0-46,71.3,64.17,64.17,0,0,1,15-2.17l1.71,0a64.11,64.11,0,0,1,42.1,15.68,24.29,24.29,0,0,0,5-14.83,22.08,22.08,0,0,0-.23-3.27,24.42,24.42,0,0,0,32.85,0,23.56,23.56,0,0,0-.12,2.38,24.32,24.32,0,0,0,6.32,16.39,64.06,64.06,0,0,1,42.53-16.39h.37a64,64,0,0,1,38.11,12.52A104.64,104.64,0,0,0,16.57,89.28c.32-.25.63-.51.95-.75A104.67,104.67,0,0,1,85.66,6.44Z"/><path class="cls-3" d="M174.74,129.83a39.48,39.48,0,0,0-31.91-18.26c-.47,0-1,0-1.43,0a39.42,39.42,0,0,0-15.5,3.15q-1,2.43-1.88,5a64.34,64.34,0,0,0-2.2,8.59,19.83,19.83,0,0,1-2.19.11h0a64.45,64.45,0,0,0-2.22-8.7q-.84-2.53-1.88-5a39.42,39.42,0,0,0-15.5-3.15c-1.2,0-2.38,0-3.55.16a39.48,39.48,0,0,0-29.79,18.13,64.45,64.45,0,0,0-27.19-20.27,104.84,104.84,0,0,0,58.84,79.08c1.37.65,2.76,1.26,4.16,1.85a105.31,105.31,0,0,0,54.31,7.22,98.58,98.58,0,0,0,9.9-1.8A99.91,99.91,0,0,0,176.81,193a104.45,104.45,0,0,0,47.44-79c.25-3,.37-5.93.37-8.87A64.19,64.19,0,0,0,174.74,129.83Z"/><path class="cls-4" d="M112,209.25A104.38,104.38,0,0,1,78,200.5c-1.52-.68-3-1.39-4.49-2.15a104.65,104.65,0,0,1-57.34-93.21h-.85A104.72,104.72,0,0,0,138,208.23,105,105,0,0,1,112,209.25Z"/><path class="cls-5" d="M85.66,6.44A104.67,104.67,0,0,0,17.52,88.53L39.61,77.74A104.41,104.41,0,0,1,85.66,6.44Z"/><path class="cls-6" d="M166.7,195.91a98.58,98.58,0,0,1-9.9,1.8,105.31,105.31,0,0,1-54.31-7.22c-1.4-.59-2.79-1.2-4.16-1.85a104.88,104.88,0,0,1-58.84-79.08,64.3,64.3,0,0,0-23.28-4.42,104.65,104.65,0,0,0,57.34,93.21c1.48.76,3,1.47,4.49,2.15a102.88,102.88,0,0,0,98.77-7.5A99.91,99.91,0,0,1,166.7,195.91Z"/><path class="cls-7" d="M135.91,75.55a23.56,23.56,0,0,1,.12-2.38,24.42,24.42,0,0,1-32.85,0,22.08,22.08,0,0,1,.23,3.27,24.29,24.29,0,0,1-5,14.83h.38l-.13.2a64.64,64.64,0,0,1,16.88,23.25q1,2.43,1.88,5a64.45,64.45,0,0,1,2.22,8.7h0a19.83,19.83,0,0,0,2.19-.11,64.34,64.34,0,0,1,2.2-8.59q.84-2.53,1.88-5a64.21,64.21,0,0,1,15.45-21.94c.29-.29.58-.55.88-.81A24.32,24.32,0,0,1,135.91,75.55Z"/><path class="cls-8" d="M98.64,91.44l-.25-.21a64.11,64.11,0,0,0-42.1-15.68l-1.71,0a64.17,64.17,0,0,0-15,2.17L17.52,88.53c-.32.24-.63.5-.95.75A64.5,64.5,0,0,0,1,106.9a64.37,64.37,0,0,1,14.32-1.75h.85a64.19,64.19,0,0,1,50.47,24.69A39.48,39.48,0,0,1,96.47,111.7c1.17-.11,2.35-.16,3.55-.16a39.42,39.42,0,0,1,15.5,3.15A64.64,64.64,0,0,0,98.64,91.44Z"/><path class="cls-9" d="M224.24,88.8l-1-.73a64,64,0,0,0-38.11-12.52h-.37a64.06,64.06,0,0,0-42.53,16.39c-.3.26-.59.52-.88.81a64.21,64.21,0,0,0-15.45,21.94,39.42,39.42,0,0,1,15.5-3.15c.48,0,1,0,1.43,0a39.48,39.48,0,0,1,31.91,18.26,64.19,64.19,0,0,1,49.88-24.67l.79,0h.08a64.09,64.09,0,0,1,14.89,1.76A64.39,64.39,0,0,0,224.24,88.8Z"/></g></g></svg>